<mxfile host="app.diagrams.net" modified="2023-07-25T17:53:08.876Z" agent="Mozilla/5.0 (Windows NT 10.0; Win64; x64) AppleWebKit/537.36 (KHTML, like Gecko) Chrome/114.0.0.0 Safari/537.36" etag="rz9r6UdaXrtbTogsvm-g" version="21.6.5" type="device">
  <diagram name="PÃ¡gina-1" id="w6s2HXCuN9cjPwSU-ddr">
    <mxGraphModel dx="1050" dy="581" grid="1" gridSize="10" guides="1" tooltips="1" connect="1" arrows="1" fold="1" page="1" pageScale="1" pageWidth="827" pageHeight="1169" math="0" shadow="0">
      <root>
        <mxCell id="0" />
        <mxCell id="1" parent="0" />
        <mxCell id="c48iMOqWYTTzBndpg-Cr-2" value="Pessoa" style="rounded=0;whiteSpace=wrap;html=1;" vertex="1" parent="1">
          <mxGeometry x="320" y="240" width="120" height="60" as="geometry" />
        </mxCell>
        <mxCell id="c48iMOqWYTTzBndpg-Cr-3" value="Telefone" style="rounded=0;whiteSpace=wrap;html=1;" vertex="1" parent="1">
          <mxGeometry x="10" y="240" width="120" height="60" as="geometry" />
        </mxCell>
        <mxCell id="c48iMOqWYTTzBndpg-Cr-4" value="CNH" style="ellipse;whiteSpace=wrap;html=1;" vertex="1" parent="1">
          <mxGeometry x="610" y="240" width="100" height="60" as="geometry" />
        </mxCell>
        <mxCell id="c48iMOqWYTTzBndpg-Cr-5" value="Email" style="rounded=0;whiteSpace=wrap;html=1;" vertex="1" parent="1">
          <mxGeometry x="320" y="430" width="120" height="60" as="geometry" />
        </mxCell>
        <mxCell id="c48iMOqWYTTzBndpg-Cr-14" style="edgeStyle=orthogonalEdgeStyle;rounded=0;orthogonalLoop=1;jettySize=auto;html=1;strokeColor=none;" edge="1" parent="1" source="c48iMOqWYTTzBndpg-Cr-6" target="c48iMOqWYTTzBndpg-Cr-5">
          <mxGeometry relative="1" as="geometry" />
        </mxCell>
        <mxCell id="c48iMOqWYTTzBndpg-Cr-6" value="Possui" style="rhombus;whiteSpace=wrap;html=1;" vertex="1" parent="1">
          <mxGeometry x="345" y="340" width="70" height="70" as="geometry" />
        </mxCell>
        <mxCell id="c48iMOqWYTTzBndpg-Cr-7" value="Possui" style="rhombus;whiteSpace=wrap;html=1;" vertex="1" parent="1">
          <mxGeometry x="180" y="230" width="80" height="80" as="geometry" />
        </mxCell>
        <mxCell id="c48iMOqWYTTzBndpg-Cr-10" value="1" style="text;html=1;align=center;verticalAlign=middle;resizable=0;points=[];autosize=1;strokeColor=none;fillColor=none;" vertex="1" parent="1">
          <mxGeometry x="380" y="298" width="30" height="30" as="geometry" />
        </mxCell>
        <mxCell id="c48iMOqWYTTzBndpg-Cr-11" value="N" style="text;html=1;align=center;verticalAlign=middle;resizable=0;points=[];autosize=1;strokeColor=none;fillColor=none;" vertex="1" parent="1">
          <mxGeometry x="395" y="388" width="30" height="30" as="geometry" />
        </mxCell>
        <mxCell id="c48iMOqWYTTzBndpg-Cr-12" value="N" style="text;html=1;align=center;verticalAlign=middle;resizable=0;points=[];autosize=1;strokeColor=none;fillColor=none;" vertex="1" parent="1">
          <mxGeometry x="165" y="228" width="30" height="30" as="geometry" />
        </mxCell>
        <mxCell id="c48iMOqWYTTzBndpg-Cr-13" value="1" style="text;html=1;align=center;verticalAlign=middle;resizable=0;points=[];autosize=1;strokeColor=none;fillColor=none;" vertex="1" parent="1">
          <mxGeometry x="285" y="238" width="30" height="30" as="geometry" />
        </mxCell>
        <mxCell id="c48iMOqWYTTzBndpg-Cr-15" value="" style="endArrow=none;html=1;rounded=0;entryX=0.5;entryY=1;entryDx=0;entryDy=0;exitX=0.5;exitY=0;exitDx=0;exitDy=0;" edge="1" parent="1" source="c48iMOqWYTTzBndpg-Cr-6" target="c48iMOqWYTTzBndpg-Cr-2">
          <mxGeometry width="50" height="50" relative="1" as="geometry">
            <mxPoint x="375" y="340" as="sourcePoint" />
            <mxPoint x="425" y="290" as="targetPoint" />
          </mxGeometry>
        </mxCell>
        <mxCell id="c48iMOqWYTTzBndpg-Cr-16" value="" style="endArrow=none;html=1;rounded=0;exitX=1;exitY=0.5;exitDx=0;exitDy=0;entryX=0;entryY=0.5;entryDx=0;entryDy=0;" edge="1" parent="1" source="c48iMOqWYTTzBndpg-Cr-2" target="c48iMOqWYTTzBndpg-Cr-4">
          <mxGeometry width="50" height="50" relative="1" as="geometry">
            <mxPoint x="470" y="288" as="sourcePoint" />
            <mxPoint x="520" y="238" as="targetPoint" />
            <Array as="points" />
          </mxGeometry>
        </mxCell>
        <mxCell id="c48iMOqWYTTzBndpg-Cr-17" value="" style="endArrow=none;html=1;rounded=0;entryX=0;entryY=0.5;entryDx=0;entryDy=0;exitX=1;exitY=0.5;exitDx=0;exitDy=0;" edge="1" parent="1" source="c48iMOqWYTTzBndpg-Cr-7" target="c48iMOqWYTTzBndpg-Cr-2">
          <mxGeometry width="50" height="50" relative="1" as="geometry">
            <mxPoint x="280" y="278" as="sourcePoint" />
            <mxPoint x="330" y="228" as="targetPoint" />
          </mxGeometry>
        </mxCell>
        <mxCell id="c48iMOqWYTTzBndpg-Cr-18" value="" style="endArrow=none;html=1;rounded=0;entryX=0;entryY=0.5;entryDx=0;entryDy=0;exitX=1;exitY=0.5;exitDx=0;exitDy=0;" edge="1" parent="1" source="c48iMOqWYTTzBndpg-Cr-3" target="c48iMOqWYTTzBndpg-Cr-7">
          <mxGeometry width="50" height="50" relative="1" as="geometry">
            <mxPoint x="130" y="280" as="sourcePoint" />
            <mxPoint x="180" y="230" as="targetPoint" />
            <Array as="points" />
          </mxGeometry>
        </mxCell>
        <mxCell id="c48iMOqWYTTzBndpg-Cr-19" value="" style="endArrow=none;html=1;rounded=0;entryX=0.5;entryY=1;entryDx=0;entryDy=0;" edge="1" parent="1" target="c48iMOqWYTTzBndpg-Cr-6">
          <mxGeometry width="50" height="50" relative="1" as="geometry">
            <mxPoint x="380" y="430" as="sourcePoint" />
            <mxPoint x="420" y="380" as="targetPoint" />
          </mxGeometry>
        </mxCell>
      </root>
    </mxGraphModel>
  </diagram>
</mxfile>
